<svg id="Layer_1" height="512" viewBox="0 0 512 512" width="512" xmlns="http://www.w3.org/2000/svg" xmlns:xlink="http://www.w3.org/1999/xlink" data-name="Layer 1"><linearGradient id="linear-gradient" gradientUnits="userSpaceOnUse" x1="180.219" x2="180.219" y1="409.663" y2="209.143"><stop offset=".322" stop-color="#a163f5"/><stop offset=".466" stop-color="#b074ee"/><stop offset=".752" stop-color="#d8a1dd"/><stop offset=".898" stop-color="#efbad3"/></linearGradient><linearGradient id="linear-gradient-2" x1="347.715" x2="347.715" xlink:href="#linear-gradient" y1="409.663" y2="209.143"/><linearGradient id="linear-gradient-3" x1="254.695" x2="254.695" xlink:href="#linear-gradient" y1="409.663" y2="209.143"/><linearGradient id="linear-gradient-4" x1="339.115" x2="339.115" xlink:href="#linear-gradient" y1="409.663" y2="209.143"/><linearGradient id="linear-gradient-5" x1="340.154" x2="340.154" xlink:href="#linear-gradient" y1="409.663" y2="209.143"/><linearGradient id="linear-gradient-6" x1="227.392" x2="227.392" xlink:href="#linear-gradient" y1="409.663" y2="209.143"/><linearGradient id="linear-gradient-7" x1="217.456" x2="217.456" xlink:href="#linear-gradient" y1="409.663" y2="209.143"/><linearGradient id="linear-gradient-8" x1="237.173" x2="237.173" xlink:href="#linear-gradient" y1="409.663" y2="209.143"/><linearGradient id="linear-gradient-9" x1="246.832" x2="246.832" xlink:href="#linear-gradient" y1="409.663" y2="209.143"/><linearGradient id="linear-gradient-10" x1="207.399" x2="207.399" xlink:href="#linear-gradient" y1="409.663" y2="209.143"/><linearGradient id="linear-gradient-11" x1="319.265" x2="319.265" xlink:href="#linear-gradient" y1="409.663" y2="209.143"/><linearGradient id="linear-gradient-12" x1="149.885" x2="149.885" xlink:href="#linear-gradient" y1="409.663" y2="209.143"/><linearGradient id="linear-gradient-13" x1="189.579" x2="189.579" xlink:href="#linear-gradient" y1="409.663" y2="209.143"/><linearGradient id="linear-gradient-14" x1="246.44" x2="246.44" xlink:href="#linear-gradient" y1="409.663" y2="209.143"/><linearGradient id="linear-gradient-15" x1="135.746" x2="135.746" xlink:href="#linear-gradient" y1="409.663" y2="209.143"/><linearGradient id="linear-gradient-16" x1="287.699" x2="287.699" xlink:href="#linear-gradient" y1="409.663" y2="209.143"/><linearGradient id="linear-gradient-17" x1="256" x2="256" xlink:href="#linear-gradient" y1="409.663" y2="209.143"/><path d="m103.922 413.233 79.5 42.072a3 3 0 0 0 3.706-.728l36.318-43.493 4.477 2.369a3 3 0 0 0 4.048-1.235l10.33-19.3a3 3 0 0 0 -1.229-4.061l-2.488-1.331 2.849-5.383a24.877 24.877 0 0 0 5.286 1.574 3 3 0 0 0 3.181-1.55 70.78 70.78 0 0 0 5.322-53.167 67.235 67.235 0 0 0 -86.258-45.649 70.787 70.787 0 0 0 -40.964 34.306 3 3 0 0 0 .53 3.525 19.048 19.048 0 0 0 2.51 1.947l-2.822 5.333-.812-.435a3 3 0 0 0 -4.061 1.229l-10.615 19.827a3 3 0 0 0 1.242 4.066l4.458 2.36-15.982 54.224a3 3 0 0 0 1.474 3.5zm22.2 4.96 14.945-50.7 16.12 8.53-20.812 47.6zm15.57 8.239 20.813-47.6 16.652 8.813-27.657 43.98zm15.13 8.007 27.653-43.98 16.325 8.641-33.944 40.65zm27.26 14.426-11.8-6.247 33.945-40.65 11.8 6.247zm-13.263-159.8a61.234 61.234 0 0 1 78.643 41.619 64.84 64.84 0 0 1 -3.82 46.626c-9.392-2.8-14.744-12.493-16.77-30.234a3 3 0 0 0 -4.813-2.035c-9.87 7.61-22.917 8.2-34.9 1.586-12.174-6.722-19.641-18.689-18.582-29.779a3 3 0 0 0 -4.788-2.684c-16 12.018-27.177 6.929-31.29 4.139a64.843 64.843 0 0 1 36.319-29.241zm-34.451 36.821c6.323 2.437 16.147 3.572 28.294-3.727 1.3 11.569 9.426 23 21.6 29.72 12.542 6.926 26.151 7.1 37.316.689 2.075 12.737 6.267 21.526 12.677 26.551l-2.955 5.581-99.791-53.4zm-9.151 8.849 108.38 58-7.5 14.019-108.648-57.5zm-3.375 23.64 11.814 6.252-14.945 50.7-11.811-6.25z" fill="url(#linear-gradient)"/><path d="m332.69 283.573-11.985 7.747a15.735 15.735 0 0 1 -12.584 1.981l-2.935-.785a16.145 16.145 0 0 0 -17.841 7.082c-1.96 3.194-5.276 9.654-5.469 17.039a23.055 23.055 0 0 0 5.765 16.05c-4.428 2.305-6.286 4.761-7.319 9.415a9.826 9.826 0 0 0 2.863 9.067c2.928 3.052 7.485 4.96 12.589 5.491a15.7 15.7 0 0 0 .249 16.6l.163.252c-.284.512-.557 1.038-.811 1.587a7.217 7.217 0 0 0 2 8.675l39.514 31.76a14.475 14.475 0 0 0 16.956.87l54.75-35.645a14.275 14.275 0 0 0 6.121-16.18l-14.662-48.567a7.221 7.221 0 0 0 -7.928-5.04 15.7 15.7 0 0 0 -14.853-6.944 18.675 18.675 0 0 0 -.22-13.009 11.1 11.1 0 0 0 -8.559-6.936 21 21 0 0 0 -10.413.8l-.768-.566a21.8 21.8 0 0 0 -24.623-.744zm17.893 127.8a8.482 8.482 0 0 1 -9.933-.513l-39.513-31.76a1.227 1.227 0 0 1 -.316-1.479c2.59-5.6 7.316-8.464 14.447-8.758a7.426 7.426 0 0 0 1.46-.222l37.015 40.675zm8.254-5.373-37.365-41.06c.109-.2.223-.4.314-.619 2.3-5.441 6.02-8 11.652-8 .342 0 .692.01 1.048.029a7.594 7.594 0 0 0 1.853-.148l32.53 43.272zm15.072-9.812-32.626-43.4a7.362 7.362 0 0 0 .587-1.191c2.231-5.95 6.372-8.587 13.02-8.279a7.534 7.534 0 0 0 1.287-.061l26.123 47.467zm13.436-8.748-26.028-47.287a7.28 7.28 0 0 0 .829-1.509c2.325-5.986 6.256-8.7 12.371-8.544.219 0 .433-.019.648-.033l22.207 50.845zm5.66-70.529a1.193 1.193 0 0 1 1.308.839l14.662 48.568a8.323 8.323 0 0 1 -3.637 9.408l-.008.005-2.861 1.863-21.961-50.284a7.151 7.151 0 0 0 .921-1.476c2.382-5.245 6.06-8.081 11.576-8.922zm-7.059-4.1a20.479 20.479 0 0 0 -9.98 10.54 1.369 1.369 0 0 1 -1.3.748c-8.637-.215-14.888 4.056-18.117 12.368a1.431 1.431 0 0 1 -1.39.855c-9.244-.427-15.769 3.789-18.912 12.166a1.45 1.45 0 0 1 -1.448.862c-8.722-.465-15.129 3.561-18.543 11.631a1.39 1.39 0 0 1 -1.239.885c-6.167.254-11.114 2.1-14.808 5.491a9.712 9.712 0 0 1 3.729-11.762l69.822-45.13a9.715 9.715 0 0 1 12.186 1.35zm-18.313-22.79a5.3 5.3 0 0 1 3.915 3.379c1.313 3.037 1.312 8.263-2.484 13.959l-66.8 43.179c-6.817 1.057-12.3-.973-14.746-3.526a4.088 4.088 0 0 1 -1.335-3.615c1-4.513 2.006-5.11 17.911-10.645 5.76-2 13.648-4.748 23.818-8.619 12.032-4.577 17.339-13.916 21.6-21.421 5.288-9.298 8.497-14.085 18.121-12.687zm-23.333 9.731c-4.181 7.358-8.5 14.967-18.521 18.777-10.089 3.84-17.611 6.458-23.656 8.561-3.365 1.171-6.2 2.158-8.605 3.067-4.122-4.028-9.887-13.027-1.055-27.422a10.112 10.112 0 0 1 11.175-4.423l2.935.785a21.728 21.728 0 0 0 17.392-2.738l11.986-7.747a15.776 15.776 0 0 1 16.522-.3c-3.408 3.055-5.813 7.28-8.173 11.44z" fill="url(#linear-gradient-2)"/><path d="m211.2 116.405a12.059 12.059 0 0 0 2.89 11.68l-29.092 43.556a13.888 13.888 0 0 0 1.113 16.857l35.7 40.645a13.882 13.882 0 0 0 16.572 3.277l46.923-23.22c3.854 4.814 8.229 5.7 10.927 5.7.187 0 .366 0 .536-.011 5.125-.226 10.057-3.625 12.565-8.661a15.056 15.056 0 0 0 .173-13.458 55.983 55.983 0 0 0 -73.17-84.555 12.2 12.2 0 0 0 -10.732-3.951c-6.496.758-12.691 5.979-14.405 12.141zm24.52 110.637a7.878 7.878 0 0 1 -9.4-1.859l-35.7-40.645a7.879 7.879 0 0 1 -.632-9.564l27.785-41.6a8.487 8.487 0 0 0 2.213 5.339c2.581 2.938 5.516 3.066 7.659 3.159 1.792.077 2.553.147 3.41 1.123s.828 1.739.675 3.526c-.184 2.138-.437 5.064 2.144 8s5.516 3.065 7.659 3.158c1.792.078 2.554.148 3.411 1.124s.829 1.74.675 3.527c-.184 2.138-.436 5.064 2.145 8s5.516 3.065 7.659 3.158c1.791.078 2.553.148 3.41 1.123s.829 1.741.675 3.528c-.184 2.138-.436 5.065 2.145 8s5.517 3.066 7.66 3.16c1.792.077 2.554.148 3.412 1.125s.829 1.741.676 3.528c-.184 2.138-.436 5.065 2.146 8a8.5 8.5 0 0 0 5.015 2.885zm-18.745-109.024a11.8 11.8 0 0 1 9.329-7.8c2.956-.349 5.263.931 6.85 3.8a3 3 0 0 0 4.6.8 49.982 49.982 0 1 1 65.971 75.1 3 3 0 0 0 -.492 3.954 9.217 9.217 0 0 1 .726 9.671 9.337 9.337 0 0 1 -7.459 5.342c-2.407.107-4.633-1.108-6.535-3.5a4.746 4.746 0 0 0 .183-2.506 4.665 4.665 0 0 0 -4.291-3.795c-.751-.053-1.469-.047-2.105-.043-2.061.021-2.817-.031-3.708-1.045-.858-.977-.83-1.741-.676-3.529.184-2.138.435-5.065-2.146-8s-5.517-3.067-7.66-3.16c-1.793-.078-2.554-.148-3.412-1.125s-.829-1.74-.675-3.528c.184-2.137.436-5.064-2.146-8s-5.515-3.065-7.658-3.158c-1.792-.077-2.553-.147-3.41-1.123s-.829-1.74-.675-3.528c.184-2.137.436-5.063-2.145-8s-5.516-3.065-7.659-3.159c-1.792-.077-2.554-.147-3.411-1.123s-.829-1.74-.675-3.527c.184-2.138.437-5.064-2.144-8s-5.516-3.065-7.659-3.158c-1.792-.078-2.553-.148-3.41-1.123-.89-1.014-.838-1.771-.557-3.811.086-.627.184-1.339.229-2.088a4.665 4.665 0 0 0 -3.209-4.747 4.76 4.76 0 0 0 -2.5-.145 6.041 6.041 0 0 1 -1.471-5.946z" fill="url(#linear-gradient-3)"/><path d="m333.841 182.1a3 3 0 0 0 4.114-1.038 55.71 55.71 0 0 0 7.695-33.408 3 3 0 1 0 -5.978.5 49.753 49.753 0 0 1 -6.869 29.83 3 3 0 0 0 1.038 4.116z" fill="url(#linear-gradient-4)"/><path d="m337.936 138.642a3 3 0 1 0 5.771-1.642c-.413-1.447-.888-2.888-1.411-4.285a3 3 0 1 0 -5.618 2.108c.467 1.241.89 2.528 1.258 3.819z" fill="url(#linear-gradient-5)"/><path d="m244.284 173.4a3 3 0 0 0 -4.234-.273l-29.277 25.713a3 3 0 0 0 3.96 4.508l29.277-25.717a3 3 0 0 0 .274-4.231z" fill="url(#linear-gradient-6)"/><path d="m232.734 160.585a3 3 0 0 0 -4.239.163l-26.479 28.589a3 3 0 0 0 4.4 4.077l26.484-28.589a3 3 0 0 0 -.166-4.24z" fill="url(#linear-gradient-7)"/><path d="m255.5 186.5a3 3 0 0 0 -4.183-.707l-31.764 22.572a3 3 0 1 0 3.475 4.891l31.764-22.572a3 3 0 0 0 .708-4.184z" fill="url(#linear-gradient-8)"/><path d="m262.173 198.543-33.7 19.572a3 3 0 1 0 3.014 5.189l33.7-19.572a3 3 0 0 0 -3.014-5.189z" fill="url(#linear-gradient-9)"/><path d="m221.1 148.208a3 3 0 0 0 -4.207.55l-23.748 30.892a3 3 0 1 0 4.756 3.657l23.753-30.891a3 3 0 0 0 -.554-4.208z" fill="url(#linear-gradient-10)"/><path d="m344.606 198.394a131.07 131.07 0 0 1 -12.081 21.873 28.833 28.833 0 1 0 -22.564 52.26 28.992 28.992 0 0 0 7.1.887 28.834 28.834 0 0 0 20.163-49.394 136.86 136.86 0 0 0 12.881-23.228 3 3 0 1 0 -5.5-2.4zm-5.452 51.755a22.835 22.835 0 1 1 -10.154-25.016q-2.887 3.777-6.029 7.233a9.763 9.763 0 0 1 -1.971-2.437 3 3 0 0 0 -5.224 2.95 15.976 15.976 0 0 0 5.912 5.938 2.983 2.983 0 0 0 .627.345 24.3 24.3 0 0 0 7.472 2.5 3.115 3.115 0 0 0 .515.044 3 3 0 0 0 .509-5.956 23.62 23.62 0 0 1 -2.317-.533q2.668-3.025 5.156-6.276a22.831 22.831 0 0 1 5.504 21.208z" fill="url(#linear-gradient-11)"/><path d="m123.176 210.953a28.836 28.836 0 1 0 37.577-15.842 29.023 29.023 0 0 0 -7.072-1.883 136.963 136.963 0 0 0 -3.721-26.285 3 3 0 0 0 -5.835 1.4 131.2 131.2 0 0 1 3.546 24.725 28.87 28.87 0 0 0 -24.495 17.889zm24.605-11.875q-.032 4.755-.449 9.413a9.736 9.736 0 0 1 -3.077-.757 3 3 0 0 0 -2.395 5.5 15.732 15.732 0 0 0 6.341 1.314 22.271 22.271 0 0 0 10.132-2.736 3 3 0 1 0 -2.74-5.338 23.17 23.17 0 0 1 -2.158.964q.309-4.02.344-8.11a23.059 23.059 0 0 1 4.713 1.339 22.793 22.793 0 1 1 -10.711-1.59z" fill="url(#linear-gradient-12)"/><path d="m170.327 91.609a28.835 28.835 0 1 0 30.708-47.939 133.864 133.864 0 0 1 13.872-25.984 3 3 0 0 0 -4.964-3.372 139.7 139.7 0 0 0 -14.643 27.552 29.005 29.005 0 0 0 -7.3-.523 28.836 28.836 0 0 0 -17.668 50.266zm2.238-36.709a22.682 22.682 0 0 1 15.757-7.561q.641-.035 1.277-.035a22.837 22.837 0 0 1 3.613.3q-1.3 3.878-2.312 7.781a23.417 23.417 0 0 1 -1.729-1.616 3 3 0 1 0 -4.329 4.154c4.308 4.49 8.961 6.76 13.848 6.76q.63 0 1.265-.051a3 3 0 1 0 -.474-5.981 9.741 9.741 0 0 1 -3.154-.285q1.114-4.532 2.634-9.034a22.83 22.83 0 1 1 -26.4 5.564z" fill="url(#linear-gradient-13)"/><path d="m223.314 266.057c0 9.018 10.158 16.082 23.126 16.082s23.126-7.064 23.126-16.082-10.158-16.082-23.126-16.082-23.126 7.064-23.126 16.082zm40.252 0c0 5.465-7.842 10.082-17.126 10.082s-17.126-4.617-17.126-10.082 7.843-10.082 17.126-10.082 17.126 4.617 17.126 10.082z" fill="url(#linear-gradient-14)"/><path d="m131.283 131.567a32.769 32.769 0 0 0 9.059 1.325c8.676 0 15.743-3.857 17.622-10.358 2.5-8.664-5.3-18.269-17.756-21.868a29.4 29.4 0 0 0 -16.441-.256c-5.342 1.625-8.978 4.923-10.24 9.289-2.502 8.663 5.297 18.269 17.756 21.868zm-11.991-20.2c.915-3.169 4.29-4.626 6.221-5.214a19.69 19.69 0 0 1 5.7-.8 26.529 26.529 0 0 1 7.328 1.077c8.919 2.576 15.173 9.188 13.656 14.438s-10.33 7.51-19.251 4.934-15.171-9.188-13.654-14.438z" fill="url(#linear-gradient-15)"/><path d="m283.236 60.119a32.776 32.776 0 0 0 9.06 1.325c8.675 0 15.743-3.857 17.621-10.358 2.5-8.664-5.3-18.27-17.755-21.868a29.4 29.4 0 0 0 -16.441-.256c-5.343 1.624-8.979 4.923-10.24 9.289s.056 9.095 3.709 13.318a29.406 29.406 0 0 0 14.046 8.55zm-11.99-20.2c.915-3.169 4.29-4.626 6.22-5.214a19.661 19.661 0 0 1 5.7-.8 26.573 26.573 0 0 1 7.329 1.077c8.919 2.577 15.172 9.188 13.655 14.439s-10.33 7.51-19.251 4.933a23.362 23.362 0 0 1 -11.173-6.711c-1.318-1.526-3.396-4.559-2.48-7.727z" fill="url(#linear-gradient-16)"/><path d="m460.346 465.83h-309.346a3 3 0 1 0 0 6h309.475a10.791 10.791 0 0 1 10.847 9.565 10.6 10.6 0 0 1 -10.537 11.605h-409.259a10.792 10.792 0 0 1 -10.848-9.564 10.6 10.6 0 0 1 10.537-11.606h53.785a3 3 0 0 0 0-6h-53.346c-9.276 0-17.177 7.59-17.022 16.865a16.606 16.606 0 0 0 16.583 16.305h409.57a16.606 16.606 0 0 0 16.583-16.3c.155-9.28-7.745-16.87-17.022-16.87z" fill="url(#linear-gradient-17)"/></svg>